<svg width="32" height="32" viewBox="0 0 32 32" fill="none" xmlns="http://www.w3.org/2000/svg">
  <!-- Background circle -->
  <circle cx="16" cy="16" r="15" fill="#3B82F6" stroke="#1E40AF" stroke-width="2"/>
  
  <!-- Calculator body -->
  <rect x="7" y="6" width="10" height="12" rx="1" fill="white"/>
  
  <!-- Calculator screen -->
  <rect x="8" y="7" width="8" height="3" rx="0.5" fill="#1E40AF"/>
  
  <!-- Calculator buttons (simplified) -->
  <circle cx="9" cy="12" r="0.8" fill="#E5E7EB"/>
  <circle cx="11" cy="12" r="0.8" fill="#E5E7EB"/>
  <circle cx="13" cy="12" r="0.8" fill="#E5E7EB"/>
  <circle cx="15" cy="12" r="0.8" fill="#10B981"/>
  
  <circle cx="9" cy="14" r="0.8" fill="#E5E7EB"/>
  <circle cx="11" cy="14" r="0.8" fill="#E5E7EB"/>
  <circle cx="13" cy="14" r="0.8" fill="#E5E7EB"/>
  <circle cx="15" cy="14" r="0.8" fill="#10B981"/>
  
  <circle cx="9" cy="16" r="0.8" fill="#E5E7EB"/>
  <circle cx="11" cy="16" r="0.8" fill="#E5E7EB"/>
  <circle cx="13" cy="16" r="0.8" fill="#E5E7EB"/>
  <circle cx="15" cy="16" r="0.8" fill="#10B981"/>
  
  <!-- Small chart icon in corner -->
  <path d="M19 20 L22 17 L25 19 L28 15" stroke="white" stroke-width="1.5" fill="none" stroke-linecap="round" stroke-linejoin="round"/>
  <circle cx="19" cy="20" r="1" fill="white"/>
  <circle cx="22" cy="17" r="1" fill="white"/>
  <circle cx="25" cy="19" r="1" fill="white"/>
  <circle cx="28" cy="15" r="1" fill="white"/>
</svg>